<svg height="512pt" viewBox="0 0 512 512" width="512pt" xmlns="http://www.w3.org/2000/svg" xmlns:xlink="http://www.w3.org/1999/xlink"><linearGradient id="a" gradientUnits="userSpaceOnUse" x1="0" x2="512" y1="256" y2="256"><stop offset="0" stop-color="#00f38d"/><stop offset="1" stop-color="#009eff"/></linearGradient><path d="m512 256c0 141.386719-114.613281 256-256 256s-256-114.613281-256-256 114.613281-256 256-256 256 114.613281 256 256zm0 0" fill="url(#a)"/><g fill="#fff"><path d="m389.203125 91.484375h-266.40625c-23.261719 0-42.183594 18.925781-42.183594 42.1875v244.65625c0 23.261719 18.921875 42.1875 42.183594 42.1875h266.40625c23.261719 0 42.183594-18.925781 42.183594-42.1875v-244.65625c0-23.261719-18.921875-42.1875-42.183594-42.1875zm-266.40625 30h266.40625c6.71875 0 12.183594 5.46875 12.183594 12.1875v39.367187h-290.773438v-39.367187c0-6.71875 5.464844-12.1875 12.183594-12.1875zm266.40625 269.03125h-266.40625c-6.71875 0-12.183594-5.46875-12.183594-12.1875v-175.289063h290.773438v175.289063c0 6.71875-5.464844 12.1875-12.183594 12.1875zm0 0"/><path d="m156.777344 147.261719c0 7.507812-6.085938 13.59375-13.59375 13.59375-7.503906 0-13.589844-6.085938-13.589844-13.59375 0-7.503907 6.085938-13.589844 13.589844-13.589844 7.507812 0 13.59375 6.085937 13.59375 13.589844zm0 0"/><path d="m204.351562 147.261719c0 7.507812-6.085937 13.59375-13.59375 13.59375-7.507812 0-13.59375-6.085938-13.59375-13.59375 0-7.503907 6.085938-13.589844 13.59375-13.589844 7.507813 0 13.59375 6.085937 13.59375 13.589844zm0 0"/><path d="m257.03125 216.34375c-.347656-.019531-.691406-.027344-1.03125-.027344s-.683594.007813-1.03125.027344c-43.890625.554688-79.429688 36.414062-79.429688 80.433594 0 44.019531 35.539063 79.878906 79.429688 80.433594.347656.015624.691406.027343 1.03125.027343s.683594-.011719 1.03125-.027343c43.890625-.554688 79.429688-36.414063 79.429688-80.433594 0-44.019532-35.539063-79.878906-79.429688-80.433594zm52.992188 67.933594h-17.273438c-.761719-12.082032-2.625-23.457032-5.453125-33.257813 11.273437 7.738281 19.550781 19.53125 22.726563 33.257813zm-65.730469 25h23.417969c-1.699219 23.816406-7.96875 38.144531-11.710938 42.203125-3.742188-4.058594-10.011719-18.386719-11.707031-42.203125zm0-25c1.695312-23.816406 7.96875-38.144532 11.707031-42.203125 3.742188 4.058593 10.011719 18.386719 11.710938 42.203125zm-19.589844-33.257813c-2.828125 9.800781-4.6875 21.175781-5.453125 33.257813h-17.273438c3.175782-13.726563 11.453126-25.519532 22.726563-33.257813zm-22.726563 58.257813h17.273438c.765625 12.082031 2.625 23.457031 5.453125 33.257812-11.273437-7.738281-19.550781-19.53125-22.726563-33.257812zm85.320313 33.253906c2.828125-9.796875 4.691406-21.171875 5.453125-33.253906h17.273438c-3.175782 13.726562-11.453126 25.519531-22.726563 33.253906zm0 0"/></g></svg>